<svg height="40" viewBox="0 0 232 40" width="232" xmlns="http://www.w3.org/2000/svg"><path d="m21.6232835 28.8625249-6.7831949 10.7227822c-.1539027.3520047-.3918769.3677239-.62204.4146929l-14.2180486-.0888599.14810438-.355452.88862834-.0592464 6.54622735-9.80453c.17141039-.4029707.19783412-.5642979.20337613-.690822l.00218033-.0915995c.00035722-.0152562.00087294-.0307767.00178956-.0469653zm21.3972943-.0180286-6.7831948 10.7227821c-.1539028.3520047-.3918769.3677238-.6220386.4146928l-14.2180501-.0888599.1481049-.355452.888628-.0592463 6.5462273-9.8045299c.1714102-.4029708.1978341-.5642979.203376-.6908221l.0021802-.0915994c.0003572-.0152563.0008729-.0307767.0017895-.0469653zm160.7806972-15.9024807v12.1232478c0 3.7098465.118933 5.987096.356798 6.8317484.253726.8280906.705673 1.4905627 1.355841 1.9874164.650167.4802935 1.47477.7204402 2.473809.7204402 1.141761 0 2.164585-.3229551 3.068471-.9688654.903897-.6624738 1.522353-1.4740033 1.855366-2.4345887.333011-.9771455.499517-3.353766.499517-7.1298616v-11.1295371h6.68406v26.3829686h-6.208327v-3.9499925c-.919742 1.4077551-2.132862 2.5173971-3.639361 3.3289258-1.490625.8115287-3.06847 1.2172931-4.733535 1.2172931-1.696781 0-3.219127-.3892025-4.567036-1.1676076-1.347909-.778405-2.323161-1.8714851-2.925756-3.2792402-.602596-1.4077535-.903894-3.3537669-.903894-5.8380403v-16.6943069zm-110.1233958-2.4895824c4.3048255 0 7.4107498.7866692 9.3177738 2.3600076 1.921047 1.5567782 2.88157 4.0078758 2.88157 7.353293v18.9794365h-7.508908v-2.9562214c-.4066437.3643547-.9114437.8032336-1.5144001 1.316639-.6029563.5134055-1.170857.9191606-1.7037023 1.2172654-.7431787.3974759-1.5144007.6873015-2.3136659.8694768-.799269.1987387-1.675659.2981081-2.6291701.2981081-2.2435574 0-4.1225371-.8197928-5.6369391-2.4593786-1.5144007-1.639584-2.271601-3.7346088-2.271601-6.2850742 0-2.0370599.385611-3.7014876 1.1568329-4.993283.7712233-1.2917937 1.8649581-2.3103237 3.2812043-3.0555899 1.4022216-.7452663 3.1409782-1.2752336 5.2162699-1.5899019 2.0752904-.3146667 4.2277038-.5465258 6.4572401-.6955774v-.1490591c0-1.5402164-.5328452-2.6001493-1.5985355-3.1797988-1.0656903-.5962146-2.63618-.894322-4.7114691-.894322-1.2479795 0-2.5800924.2649837-3.9963386.794951-1.4162439.5134054-2.4328558.9108805-3.0498357 1.1924251h-.6941009v-6.7322339c.7992678-.2484227 2.096325-.5382474 3.8911718-.8694742 1.8088666-.3477921 3.6177344-.5216881 5.4266035-.5216881zm-29.7877735-7.29919245c2.5877283 0 4.5136528.12421384 5.7777735.37264151 1.2789938.23186583 2.4167028.72872034 3.4131271 1.49056353 1.0112953.76184486 1.8515633 1.7803958 2.520804 3.05565283.6692398 1.25869853 1.0038596 2.67473458 1.0038596 4.24810818 0 1.705865-.4164158 3.270956-1.2492475 4.6952729-.8179611 1.4243154-1.9333623 2.4925527-3.3462035 3.204712 1.9928503.6459103 3.5246673 1.7472704 4.595451 3.3040805 1.0707838 1.5568117 1.6061756 3.3868922 1.6061756 5.4902415 0 1.6561811-.3494922 3.2709577-1.0484767 4.8443296-.6841114 1.5568117-1.6284831 2.8072285-2.8331152 3.7512503-1.1897607.9274633-2.6620901 1.4988461-4.4169882 1.7141484-1.1005266.1324914-3.755179.2153006-7.9639572.2484277h-11.1316981v-36.41942895zm117.9913963 8.69211575c3.242098 0 5.651363.5879438 7.227794 1.7638314 1.576432 1.1758893 2.662089 2.9148805 3.256971 5.2169736l-5.911623 1.2172931c-.252823-1.026831-.736164-1.813517-1.450023-2.3600579-.698983-.5465409-1.702843-.8198113-3.011579-.8198113-1.650793 0-2.833117.2567078-3.546974.7701233-.475903.3643606-.713854.8363731-.713854 1.4160377 0 .4968537.208207.9191791.624621 1.2669761.565137.4637333 2.51337 1.1179254 5.8447 1.9625761 3.346202.8446541 5.681107 1.8797677 7.004714 3.1053409 1.308736 1.2421367 1.963104 2.9728461 1.963104 5.1921283 0 2.4180243-.907191 4.4965325-2.721574 6.2355245-1.814387 1.7389904-4.498784 2.6084856-8.053193 2.6084856-3.227225 0-5.78521-.7287195-7.673955-2.1861585-1.873871-1.4574407-3.100811-3.4365778-3.68082-5.9374113l6.290858-1.0682365c.267697 1.3580679.810524 2.3931815 1.628483 3.1053409.817961.6955941 1.963105 1.0433911 3.435434 1.0433911 1.621048 0 2.840553-.331236 3.658513-.9937081.550265-.4637317.825397-1.0848.825397-1.8632051 0-.5299773-.148721-.9688654-.446161-1.3166641-.312312-.3312352-1.011297-.6376277-2.096954-.9191774-5.05648-1.2421383-8.261396-2.376623-9.61475-3.4034541-1.873871-1.4243153-2.810807-3.4034524-2.810807-5.9374113 0-2.2855312.810523-4.2067019 2.43157-5.7635119 1.621048-1.5568101 4.134417-2.3352151 7.540108-2.3352151zm-14.17379-.0724755v27.6357937h-7.895941v-27.6357937zm64.09864-8.86732578v36.41942898h-6.268548v-36.41942898zm-107.189343 9.40376608c1.451711 0 2.778543.2815513 3.980495.844654 1.201956.5465392 2.107325 1.250416 2.716106 2.1116302.624393.8612143 1.053662 1.8383615 1.287809 2.9314415.249756 1.0930801.374634 2.6581711.374634 4.695273v16.3961962h-6.579527v-13.4647547c0-2.8486306-.140489-4.6869912-.421467-5.5150818-.280974-.844654-.741462-1.4988461-1.381464-1.9625761-.624393-.4637299-1.381468-.6955949-2.271227-.6955949-1.139516 0-2.161957.3312352-3.067324.9937056-.905368.6624738-1.52976 1.5402508-1.873175 2.6333309-.327808 1.0930784-.491712 3.1136192-.491712 6.0616226v11.9493484h-6.579527v-26.382971h6.111234v3.8754666c2.169762-2.981127 4.901477-4.4716905 8.195145-4.4716905zm26.901708-.2137485c1.627019 0 3.194719.4388881 4.703102 1.3166642l-2.211731 6.0864679c-1.203314-.7618432-2.321889-1.1427648-3.355726-1.1427648-.999939 0-1.847346.2732696-2.542219.8198088-.694871.5299791-1.245683 1.4988453-1.652437 2.9065988-.389808 1.4077534-.584712 4.3557559-.584712 8.8440075v8.1484126h-7.14363v-26.3829711h6.635189v3.7512529c1.135522-1.7721141 2.152409-2.9397216 3.05066-3.5028227.915198-.5631027 1.949033-.8446541 3.101504-.8446541zm-53.1503812 13.957761c-1.0236431.0993711-2.1313995.2401434-3.32329.422317-1.1918892.1656168-2.096323.3643547-2.7133016.5962139-.7572011.2815463-1.3391234.6955823-1.7457671 1.2421081-.3926227.5299673-.5889341 1.2338298-.5889341 2.1115875 0 .5796511.042073 1.0516528.1262189 1.416005.0841461.3643522.2944797.7121434.631001 1.0433736.3225115.3312285.7081231.5796511 1.1568347.7452679.4487118.1490516 1.1498232.2235774 2.1033343.2235774.7571997 0 1.5214112-.1821761 2.2926345-.5465284.7852455-.3643522 1.4723353-.8446339 2.0612694-1.4408452zm-35.6159383-2.3551622h-5.3316151v9.7383446h6.112395c2.3795203 0 3.8890289-.0745274 4.5285257-.2235824.9815514-.1987421 1.7772034-.6790348 2.386956-1.440878.6246239-.778405.9369359-1.8135178.9369359-3.1053383 0-1.0930801-.2379514-2.0205426-.7138541-2.7823874-.4759044-.7618432-1.1674533-1.3166633-2.0746466-1.6644604-.8923203-.3477988-2.8405526-.5216981-5.8446968-.5216981zm-56.17654984-6.6247742 3.85072214 5.6872194.7405229-.0296233.0592466.2665884 7.1682666.0888598 2.9324732 4.3542778c.2123187.3917948.5959652.7671245.3539319 1.3329415l-13.86107437.0296233c.02823755-.7930936-.15754472-1.3186738-.44431425-1.7180141l-6.27963889-9.389837-.82939499-.533176zm21.39282684-.0216047 7.6419278.1826794c.7983907 1.1879373 1.2609292 1.8667978 1.7082842 2.4954811l.2238968.3122848c.5264015.7288223 1.1048809 1.4934501 2.2446481 3.0225989l2.9324745 4.3542778c.2123174.391795.5959639.7671246.3539319 1.3329416l-13.8610752.0296233c.0282382-.7930936-.157544-1.3186738-.4443133-1.7180141-2.2997853-3.1663994-4.3055954-6.0388246-6.899356-9.4991991 1.8538085-.746849 4.1037183-.4403583 6.0995812-.5126737zm4.589185-4.9985064-3.1565762 4.9557743c-.8503309.0570176-1.8549489.0439047-2.8568425.0320302l-.5995531-.0064052c-1.7901421-.015344-3.4697137.0195712-4.1230243.5209687l-3.4298716 5.4243917-7.0874862-.0723338-.0318815-.1730933c.1945789-.0234749.3291639-.0464675.4737157-.0956446l7.1876961-10.5446906zm28.6552852-2.8384229h-3.7923623v8.421683h4.327756c2.572857 0 4.1715966-.0414046 4.7962188-.1242138 1.1302726-.1490549 2.0151573-.5796612 2.6546541-1.2918189.6543682-.7287212.9815522-1.6810256.9815522-2.8569132 0-1.1262038-.2825685-2.0371036-.8477056-2.7326994-.5502642-.7121593-1.3756596-1.14276726-2.4761862-1.29182387-.6543681-.08280922-2.5356772-.12421383-5.643927-.12421383zm-43.4792491-8.95989035 7.5310892.18269552c1.8358931 2.77205277 1.8697763 2.77226584 4.1162497 5.83078467l2.8899418 4.35459266c.2092374.3918223.5873209.7671797.3487977 1.3330377l-13.660034.0296233c.0278271-.7931517-.155259-1.3187692-.4378694-1.718139-2.2664308-3.16662717-4.2431476-6.03925993-6.7992878-9.49988427 1.8269193-.74690279 4.0441985-.44038931 6.0111128-.51271058zm145.8221144-.25497305c2.266235 0 4.103382 2.13605813 4.103382 4.77101937s-1.837147 4.77101937-4.103382 4.77101937-4.103382-2.13605813-4.103382-4.77101937 1.837147-4.77101937 4.103382-4.77101937z" fill="#346275" fill-rule="evenodd"/></svg>