<svg height="40" viewBox="0 0 177 40" width="177" xmlns="http://www.w3.org/2000/svg"><path d="m16.0088915 40 .6632166-.0051625c1.5992072-.0335101 3.2110452-.2629257 4.8192744-.6959799 1.3859943-.3689798 2.7877073-.8913593 4.2148788-1.5509057l.7157523-.3411286 1.2089429-11.3857161c-5.6129492 5.9390287-15.9278873 3.5881631-14.8583982-6.4983904.8306901-7.8438512 11.2824827-12.23482313 16.0001282-6.2130855l.1832096.2431243 1.2063652-11.35993907c-1.5053788-.75526711-3.015913-1.32751728-4.5475844-1.69355117-1.5234227-.36861159-3.0932441-.5284292-4.6932247-.49491906-2.6784916.05670948-5.1564379.56967246-7.4271369 1.53115585-2.2794632.96921649-4.38596241 2.3972642-6.32027108 4.28929853-2.04618099 1.98483165-3.65312132 4.17587962-4.81308786 6.58345462-1.1700196 2.4101527-1.90414954 5.0677649-2.21424726 7.9831475-.38459336 3.6268288-.01314629 6.8721574 1.11563005 9.7488745 1.12877634 2.8664062 2.96126571 5.2224271 5.49566374 7.0757959 1.31411321.9743719 2.79938594 1.6961289 4.44060971 2.1498047 1.2765074.3588736 2.6621694.5664901 4.1609883.6204239zm109.8712315-21.3665909 14.112927-17.76553214h-16.249843l-5.333822 6.71265938-4.00262-6.92918647h-15.1646291l10.3881451 17.98205923zm-83.4660372 20.7994891 2.7787643-5.1476738h12.0791183l.9176624 5.1476738h12.4503077l-7.9083942-38.62173072h-14.1825243l-18.757948 38.62173072zm46.6693208 0 5.4312212-38.62173072h-12.5456827l-5.4337989 38.62173072zm59.2717134 0 2.778764-5.1476738h12.081696l.915085 5.1476738h12.452885l-7.910972-38.62173072h-14.179947l-18.760525 38.62173072zm-92.583375-14.7650854h-6.3282619l4.5934675-11.4424255zm105.941034 0h-6.325684l4.590889-11.4424255zm-52.082498 14.6542441 5.200565-6.625753 3.934816 6.5174895h15.723991l-10.773635-17.8401378.027189-.0336579h-16.249842l-14.110349 17.9820592z" fill="#346275" fill-rule="evenodd"/></svg>