<svg height="40" viewBox="0 0 157 40" width="157" xmlns="http://www.w3.org/2000/svg"><path d="m13.9661889 30.3079841c9.3917265 0 13.107881-7.2386664 12.2643582-11.6751482-.6177544-3.248825-2.9589723-4.8420464-6.5498707-5.8813034l-.4368759-.1221223-.448691-.1172273-.460324-.1127553-.4717752-.1087063-.4830443-.1050804-.7473421-.1543976-.2923446-.0656131-.212088-.0515795-.2226567-.0582439c-.0378385-.0102815-.0760037-.0208547-.1144386-.0317268l-.2333917-.0688744-.2371361-.0763842-.2381511-.084232c-1.0302436-.3824972-2.012186-.9955649-1.9463101-1.96301083.0833889-1.22416978 1.2602853-1.84308922 2.9449181-2.10665282l.3117613-.04406051.3221688-.03656276c.1090372-.01097505.2196785-.0207561.3317937-.02939878l.3406363-.02256858.3486965-.01607215c.0587443-.00215586.1177918-.00405495.1771263-.00570422l.3593198-.00695334.365424-.00129135.3707458.00403685.5643855.01531554.5719586.0254265.5768911.03441099.579183.04226896.5788343.04900045.587791.05579458.6389376.06661601.6280578.07063156.9135346.10999858 2.4176319.30908252.4475469.05422298c.0713035.00835602.1409113.01634938.2087459.02394697l1.9553317-7.0636074-.7945848-.11274902-1.7428241-.23245942-1.1275292-.14097066-1.059555-.12540634-1.3077803-.14425221-.7944733-.08113917-.7596132-.07225984-.7561319-.06597779c-.3759525-.03116992-.7478024-.05942505-1.1113542-.08392686l-.7147962-.04375072c-.7012458-.03824937-1.3581107-.05924935-1.9370299-.05656712l-.3604899.00500385-.3635326.01058284c-.0608194.00226064-.1217484.00477195-.1827784.00753728l-.3673236.01966719-.3693354.02592523-.3709351.03234471-.3721224.03892563c-.0620964.00704498-.1242252.0143709-.1863776.02198111l-.3731304.04909971-.3732869.05608422-.3730312.06323019c-4.65957428.83571224-9.16258414 3.38409627-9.88531925 9.06406004-.40895666 3.2149857 1.58930586 8.1105157 8.40374405 9.364964l.3334762.0576712 1.0910117.1574671.4946965.0772928.2520568.0440165.2526015.0483647.2512008.0532891.2478543.0587896c.0409221.0102887.0816237.0208305.1220642.0316376l.2391866.0681206c1.0200907.3098117 1.8089172.8151237 1.6540503 1.7268964-.1818598 1.071033-1.4298361 1.6302489-3.1741801 1.8742103l-.3327422.0420964-.3435413.0349955-.3535057.0281826c-.0597016.0041454-.1197836.0080189-.1802287.0116265l-.3668875.0185031c-.0618275.0025681-.1239834.0048823-.1864501.0069486l-.3783914.0094715-.3850175.0038103-.390809-.0015629-.3957659-.0066483-.3998881-.0114456-.60573583-.0255336-.40654252-.0221794-.61180524-.0402845c-.06802419-.0049138-.13604626-.0099675-.20404884-.0151551l-.63168814-.0519566-.41896284-.0384015-.32882366-.0321974-.65058486-.0687044-.63814255-.0734065c-.10511852-.0125567-.20956732-.0252571-.31327076-.0380751l-.61267119-.0781111-.87752307-.1197199-.81685001-.119026-.97357293-.1503147c-.0749222-.0118833-.14819132-.0235711-.21973172-.0350372l-2.13877394 7.6486152c1.0680743.0941352 2.22499298.1719642 3.439292.235444l1.0541462.0509428c.17778847.00792.3565645.0155585.53623637.0229213l1.08804731.0409139c.18288826.0062828.36648889.0123012.55071016.018061l1.11204138.0315011 1.12253351.0255682 1.12862247.0199092c.1883666.0028618.3768034.0054993.5652187.007918l1.1295001.0119341 1.1245814.0069596zm45.817277-.739256 1.9439039-6.5668681c-2.4998972.6004386-4.9051748.8473302-7.2470373.8533606-3.41323.0085135-5.2483038-1.4073887-4.7896538-4.4057386.4422767-2.8891833 2.9809528-3.6503491 5.5495089-3.7376062l.3021963-.0072441c.0503475-.0007184.1006753-.0011996.1509679-.0014546l.3012078.0010967c.0500892.000606.1001121.0014163.1500529.0024199l.4468337.0139562.4398828.0226198.6648788.042467c.1071099.0072267.2124462.0145328.316126.0219264l.6031357.0454709.8424444.0729506.5283147.0523394.5082158.0557386.4937338.05951c.0813942.0102533.1624189.0206793.2431914.0312857l.4825422.0658654.4821022.0705679.7346153.1154834.505576.0839531 1.8989034-7.04675774c-.2535509-.05358103-.5034584-.10545929-.7504695-.15557429l-.7330906-.14499472c-2.9035795-.55833573-5.4976104-.8540497-9.072614-.78259708l-.4546241.01222114c-4.012267.13661179-7.9138347 1.05557334-10.4453302 4.57756289-2.0289312 2.8225814-3.2802417 7.0703472-2.4878181 10.5682151.6626919 2.9246844 3.9204333 6.3715305 8.2578911 7.0793338 2.2686067.3702936 4.1533487.1615088 6.1367529-.2090245l.6301807-.1219004 1.9636651-.4010161c.4530596-.0911066.9194968-.1815939 1.4038139-.2675681zm-24.1325342.3849996 5.6646178-21.32952137h-9.1141443l-5.7911521 21.32952137zm115.2550293 0 5.664736-21.32952137h-9.113789l-5.791448 21.32952137zm-40.949879 0 2.436542-5.6562778h-12.246654l.579677-2.4743555h10.690584l1.160539-4.2562793h-10.690583l.646586-2.4897862h12.215272l1.758573-6.45282257h-21.266297l-5.6961181 21.32952137zm19.588844.0948901c1.360674 0 2.911415-.1896029 4.462157-.5054893 1.898903-.5371785 3.449645-1.6431655 4.93703-3.5392531.854418-1.2955898 1.803574-3.5391938 2.563253-6.635922.4429-1.8957919.600994-3.4443038.600994-4.6449444 0-3.254701-1.012512-4.80321283-3.607739-5.6562778l-.132862-.03867113-.158187-.03979742-.183512-.04036153c-.032696-.0067427-.066446-.01348547-.101252-.02021661l-.221497-.04015354-.246819-.03931212-.272139-.03790849-.297459-.03594266c-.103373-.01159078-.210966-.02276023-.322778-.03341463l-.348096-.03032438-.373412-.02667193c-.064345-.00410971-.129745-.00804382-.196199-.0117906l-.411385-.02013912-.436699-.01508115-.462012-.00946097-.487324-.00327859h-13.70325l-5.696118 21.32952137h13.006926c.16437 0 .333951.0101216.50662.0242919l.525152.0485837.265545.0220145zm-36.0596251 9.9513822-12.0252041-18.3812888h1.4382402c5.0003864 0 7.5956137-3.1038819 7.5956137-8.191292 0-3.1955246-1.5867586-4.74633932-4.8191176-4.80167621l-.1812689-.00153666h-17.0569725l-5.6967102 21.32952137h9.0510251l1.1753357-4.1974007.4702132-1.7236696.3436192-1.3048141.1452433-.5897929c.0074477-.031984.0144135-.0623817.0208766-.0911218l.0333391.0704135.0950906.17523.1461096.2539597.3474835.5835488.3623203.5966874 1.0442737 1.6943251 1.4388294 2.3081213 6.3960162 10.142943 1.349956 2.1278426zm-15.3653083-20.884673h-3.386289l1.2025796-4.392318h3.513001c1.4873855 0 2.0883792.4424657 2.0883792 1.5482163 0 1.9135503-1.0264091 2.7117741-3.2563408 2.8363436zm49.0898624 4.896766-2.158467.0010413 2.341803-8.4053712 2.204605.0004819.143247.001501.273604.0063928.256736.0114685c1.614799.0924847 2.184958.548854 2.184958 2.1921298 0 1.7673124-.617193 3.8283508-1.68328 5.0499067l-.120293.1322162c-.474874.5371785-1.07646.7900414-1.898904.9163842-.443031.0738034-.962715.0902042-1.544009.0938488z" fill="#346275"/></svg>