<svg height="40" viewBox="0 0 72 40" width="72" xmlns="http://www.w3.org/2000/svg"><path d="m26.0699857 33.7501047c2.4328745 0 2.5759848 1.3513626 2.584403 2.8429625v.5606245c-.0084182 1.4849519-.1515285 2.844081-2.584403 2.844081s-2.5759848-1.3593969-2.584403-2.8441282v-.5605773c.0084182-1.4915999.1515285-2.8429625 2.584403-2.8429625zm12.6241288.0275121c2.5849292 0 2.5849292 1.5164918 2.5849292 3.1149152 0 1.5709114 0 3.1052407-2.5849292 3.1052407-2.4328745 0-2.5759847-1.3593969-2.584403-2.8287529v-.55742c.0084183-1.4906546.1515285-2.833983 2.584403-2.833983zm-17.8574766-.0275121c1.5890512 0 2.237551.7122916 2.1737591 2.0092912h-1.5346316c0-.8035956-.1829102-1.1050195-.6394298-1.1050195-.8767596 0-.9955756.6666397-.9955756 2.2197135 0 1.5527714.118816 2.2194111.9955756 2.2194111.7213615 0 .6847795-.7488737.7122916-1.2329054h1.5437015c0 1.6165633-.8038978 2.1371771-2.2559931 2.1371771-2.3568472 0-2.5648043-1.2757621-2.5829292-2.7053395l-.0016636-.2783118.0000253-.2808429.00171-.279601c.0183492-1.4353506.2263068-2.7035728 2.5831598-2.7035728zm-10.7143045.1460259 1.9911512 5.9371741h-1.6168656l-.4017978-1.3154418h-2.10089734l-.42023995 1.3154418h-1.51618943l2.03680323-5.9371741zm42.7752865.0003023c1.0505999 0 1.7263094.5481259 1.7172395 1.5530738 0 .8948994-.3467735 1.3883035-1.2056956 1.5252593l1.1053218 2.1646893 1.7994734-5.2430224h2.0277334l1.6897273 5.0326001h1.9458017c.4931017 0 .7395013-.2648419.7395013-.6666397 0-1.0687397-2.9410749-.9589936-2.9410749-2.721885 0-.9317838.4383798-1.6440754 2.2194111-1.6440754h2.1649915v.9133416h-1.9914536c-.4752641 0-.7491759.2191899-.7491759.6300576 0 1.1237639 2.932005.8589221 2.932005 2.7221874 0 1.5343293-1.1231593 1.6712852-2.237551 1.6712852v.0003023h-3.3978969l-.4108677-1.3154417h-2.0918274l-.42024 1.3154417h-2.4479732l-1.6534477-3.2428012h.6303599c.4658919.0184422.7582459-.3833556.7582459-.8764572 0-.5844057-.3195638-.9042718-.8038978-.9042718h-.9133417v5.0235302h-1.5437015v-5.9371741zm-38.4552804-.0003023 1.9273595 4.1104908h.0275121v-4.1104908h1.2785573v5.9371741h-1.9911513l-1.9820813-4.3387507h-.0181398v4.3387507h-1.2788597v-5.9371741zm52.0009138 0v5.9371741h-1.5346316v-5.9371741zm2.603069 0v5.0326h2.1281072v.9045741h-3.6627388v-5.9371741zm-65.68320075-1.3154418c1.4248855 0 2.61244126.328936 2.61244126 1.8726376 0 .8401775-.51154388 1.442723-1.53463162 1.5981211v.0184422c1.33358157.1550957 1.68065744.8492475 1.68065744 1.8360555 0 1.8451255-1.98238368 1.9179872-2.77690927 1.9179872h-3.31566291v-7.2432436zm43.08578045 0c1.4251878 0 2.6033713.328936 2.6033713 1.8726376 0 .8401775-.5024739 1.442723-1.5255617 1.5981211v.0184422c1.3338839.1553981 1.6809598.8495498 1.6809598 1.8451254 0 1.8360556-1.9823837 1.9089173-2.7769093 1.9089173h-3.3156629v-7.2432436zm-13.2807916 1.2969996c2.0371056 0 2.4116936 1.0871819 2.4116936 2.9413772 0 .9133417.1732356 3.0048668-2.4664155 3.0048668h-2.5302072v-5.946244zm5.5260041.8038978c-.8858295 0-1.0046455.666942-1.0046455 2.2106435 0 1.5437016.1185137 2.2103412 1.0046455 2.2103412.8767596 0 .9955757-.6666396.9955757-2.2103412 0-1.5440039-.1188161-2.2106435-.9955757-2.2106435zm-12.6241288-.0275121c-.8861319 0-.9955756.6666396-.9955756 2.2197134 0 1.5527715.1094437 2.2194111.9955756 2.2194111.8767596 0 .9955756-.6666396.9955756-2.2194111 0-1.5530738-.118816-2.2197134-.9955756-2.2197134zm6.8604927.1463282h-.794828v4.1195607h.749176c.9408537 0 1.1234616-.5662657 1.1234616-2.0643153 0-1.0962518 0-2.0552454-1.0778096-2.0552454zm13.1529055 1.8632653h-.4931017l-.6034524.0181398v2.0461755l1.1166242-.0002933c.4187268-.0043748 1.2219052-.0712159 1.2219052-1.0318644 0-.6394298-.2917493-1.0321576-1.2419753-1.0321576zm-43.0857804-.00907h-.49310169l-.60284781.00907v2.0461755l1.1162791-.0002206c.41849825-.003518 1.22194804-.0622187 1.22194804-1.0228672 0-.6391275-.29205164-1.0321577-1.24227764-1.0321577zm54.2384648-1.5527714h-.0184422l-.7032217 2.557417h1.4705375zm-48.20998677-.0637919h-.02751211l-.70322166 2.5667893h1.47053747zm37.12139657-1.3338839h-1.160346v1.8544977l.6031501-.0090699h.6575697c.4108677 0 .9771335-.2194922.9771335-.9227139 0-.5296837-.4474498-.9227139-1.0775073-.9227139zm-43.08608278-.0087676h-1.16004365v1.8541954l.60315014-.0090699h.65756969c.41086769 0 .97713345-.2194922.97713345-.9227139 0-.5296837-.44775205-.9224116-1.07780963-.9224116zm21.27230408-11.1892664 3.2149867 2.1465494-6.4302758 4.2840288v-4.2840288zm14.4683473-15.0071009 3.215289 2.14654935-14.4683473 9.64526255 8.0380715 5.3618384 4.0282569-2.685303-3.224359-2.1559216 7.2338713-4.8224801 6.439648 4.3018663-14.4774172 9.6458672-14.4683473-9.6458672zm-3.2152891-7.4990155 14.4774172 9.6361926-17.6927063 11.8011841-3.2149867-2.1465493 14.4774172-9.64526255-8.0471414-5.36183841-4.0191869 2.68560534 3.224359 2.12810716-7.2432436 4.83185236-6.4302758-4.2930987zm14.4774172 0v4.28372644l-3.2152891 2.14654935-3.2149867-2.14654935z" fill="#346275" fill-rule="evenodd"/></svg>