<svg height="40" viewBox="0 0 134 40" width="134" xmlns="http://www.w3.org/2000/svg"><path d="m33.7387719 15.04933c.6184656 0 1.1333935.4762737 1.1953436 1.0987946l.0062467.1263563v13.1232514c0 .3979123-.1861577.758593-.4922839.982758l-.1202915.0774688-16.2568105 9.3771167c-.1884848.117803-.4005301.1649242-.6125755.1649242-.1696363 0-.3392725-.0301576-.4968458-.1025357l-.1157296-.0623885-16.23324993-9.3535561c-.33508402-.1884848-.55847336-.5258958-.6039786-.9129489l-.00859687-.1472779v-13.1232514c0-.6832572.54189368-1.2251509 1.22515094-1.2251509.64055367 0 1.15686202.4762737 1.2188984 1.0987946l.00625253.1263563v12.4164335l15.03165953 8.6467384 15.0316596-8.670299v-12.4164335c0-.6832572.5418937-1.2251509 1.2251509-1.2251509zm28.3198351-3.8639376c2.2389705 0 4.0791633 1.7723452 4.2101171 3.9850914l.0072294.2086945v2.6387867c0 1.9108454-1.273897 3.9974009-3.0158489 4.5419502l-.188392.0523658 3.0157561 5.7959063c.3769695.7068179.117803 1.5785599-.5654543 1.9555294-.7788085.4450334-1.5786325.0494481-1.9032735-.47223l-.0522558-.0932243-3.6990134-7.0446179h-2.9215138v6.2671183c0 .8010602-.6361361 1.4371963-1.4371963 1.4371963-.753939 0-1.3617861-.5634977-1.4306887-1.2976407l-.0065076-.1395556v-13.6415845c0-2.2389704 1.7723452-4.0791633 3.9850914-4.1886341l.2086945-.0051518zm27.9193049.0235606c.7317644 0 1.3591773.5634977 1.4304586 1.2779981l.0067377.1356376v16.4452953c0 .8010602-.636136 1.4371963-1.4371963 1.4371963-.753939 0-1.361786-.5634977-1.4306887-1.2976407l-.0065075-.1395556v-16.4217347c0-.8010602.636136-1.4371963 1.4371962-1.4371963zm14.6075691 0c.731764 0 1.359177.5634977 1.430458 1.2779981l.006738.1356376v16.4452953c0 .6596966-.424091 1.2251509-1.060227 1.3900751-.331321.0662641-1.076793.1118208-1.537536-.5427968l-.088145-.1404605-6.6440875-12.0159034v11.3090856c0 .8010602-.6361361 1.4371963-1.4371963 1.4371963-.753939 0-1.3617861-.5634977-1.4306887-1.2976407l-.0065076-.1395556v-16.4217347c0-1.4371963 1.3193933-1.4371963 1.4371963-1.4371963.4664998 0 .8948314.229009 1.1647651.6011486l.0839464.1292299 6.6440873 12.5813576v-11.8745398c0-.8010602.636137-1.4371963 1.437197-1.4371963zm11.803858 0c2.241028 0 4.06035 1.6868245 4.186973 4.2849519l.006813.2386823v13.264615c0 .8481814-.636136 1.4607569-1.437197 1.4607569-.753939 0-1.361786-.5634977-1.430688-1.2976407l-.006508-.1395556v-6.2671183h-6.408482v6.2906789c0 .8010602-.636136 1.4371963-1.437196 1.4371963-.753939 0-1.361786-.5634977-1.430689-1.2976407l-.006507-.1395556v-13.6415845c0-2.2389705 1.772345-4.0791633 3.985091-4.1886341l.208695-.0051518zm-46.2965692-.0235606c.7539391 0 1.3617861.5634977 1.4306888 1.2976407l.0065075.1395556v16.4217347c0 .8010602-.636136 1.4371963-1.4371963 1.4371963-.753939 0-1.361786-.5634977-1.4306887-1.2976407l-.0065075-.1395556v-16.4217347c0-.8010602.636136-1.4371963 1.4371962-1.4371963zm54.2836112 0c.753939 0 1.361786.5634977 1.430688 1.2976407l.006508.1395556v14.9845384h5.866588c.7775 0 1.437196.6596966 1.413636 1.4371963 0 .753939-.563498 1.361786-1.297641 1.4306887l-.139556.0065076h-7.280223c-.75394 0-1.361787-.5634977-1.430689-1.2976407l-.006508-.1395556v-16.4217347c0-.8010602.636136-1.4371963 1.437197-1.4371963zm-42.4326319 0c2.3089383 0 4.1937859 1.8848476 4.1937859 4.1937859 0 .8010603-.6361361 1.4371963-1.4371963 1.4371963s-1.4371963-.636136-1.4371963-1.4371963c0-.6847298-.5176889-1.2452142-1.1842133-1.3126001l-.13518-.0067932h-3.7932558c-.6847298 0-1.2452143.5176889-1.3126001 1.1842133l-.0067932.13518v10.8849949c0 .6847298.5176888 1.2452142 1.1842132 1.3126001l.1351801.0067932h3.7932558c.6847298 0 1.2452142-.5176889 1.3126001-1.1842133l.0067932-.13518v-3.5340893h-3.2278015c-.8010602 0-1.4371963-.636136-1.4371963-1.4371963 0-.753939.5634977-1.361786 1.2976406-1.4306887l.1395557-.0065075h4.6649978c.3769695 0 .7303784.1649241 1.0131056.4240907.2473862.2267707.386541.5437343.4174643.8719721l.0066264.1411334v4.9712856c0 2.2389704-1.7723452 4.0791632-3.9850914 4.1886341l-.2086945.0051518h-3.7932558c-2.2389705 0-4.0791633-1.7723452-4.1886341-3.9850914l-.0051518-.2086945v-10.8849949c0-2.2389704 1.7723452-4.0791633 3.9850914-4.1886341l.2086945-.0051518zm-34.492711 0c2.2389705 0 4.0791633 1.7723452 4.1886342 3.9850914l.0051517.2086945v10.8849949c0 2.2389704-1.7723452 4.0791632-3.9850913 4.1886341l-.2086946.0051518h-3.7932557c-2.2389705 0-4.0791633-1.7723452-4.1886342-3.9850914l-.0051517-.2086945v-10.8849949c0-2.2389704 1.7723452-4.0791633 3.9850913-4.1886341l.2086946-.0051518zm-.0235606 2.8743926h-3.7932557c-.6847298 0-1.2452143.5176889-1.3126001 1.1842133l-.0067933.13518v10.8849949c0 .6847298.5176889 1.2452142 1.1842133 1.3126001l.1351801.0067932h3.7932557c.6847298 0 1.2452143-.5176889 1.3126001-1.1842133l.0067933-.13518v-10.8849949c0-.7303784-.5890149-1.3193933-1.3193934-1.3193933zm-29.461829-13.96357924.1288884.06282826 16.2332499 9.37711677c.3769695.23560595.6125754.63613611.636136 1.06022681 0 .3979122-.1861577.7585929-.4922839.9827579l-.1202915.0774688-16.2568105 9.3771168c-.1884848.117803-.4005301.1649242-.6125755.1649242-.1696363 0-.3392725-.0301576-.4968458-.1025357l-.1157296-.0623885-16.23324994-9.3535562c-.37696952-.2120453-.61257547-.6125754-.61257547-1.0602267 0-.3769696.18615779-.7353233.47573657-.97577711l.11327831-.08444971 16.25681053-9.40067736c.335084-.18848476.7446311-.20942751 1.0962625-.06282826zm44.0693979 13.96357924h-3.7932558c-.6847298 0-1.2452142.5176889-1.3126001 1.1842133l-.0067932.13518v4.5000737h5.1362097c.6898018 0 1.2535109-.9877271 1.3140162-1.7127608l.0053771-.1249657h-.0235606v-2.6623472c0-.7303784-.5890149-1.3193933-1.3193933-1.3193933zm54.3307316 0h-3.769695c-.68473 0-1.245214.5176889-1.3126 1.1842133l-.006793.13518v4.5000737h6.408482v-4.5000737c0-.7303784-.589015-1.3193933-1.319394-1.3193933zm-98.8838166-11.42688852-13.80650859 7.98704172 13.80650859 7.963481 13.8065086-7.9870416zm38.851421.23560595c1.0366662 0 1.9008813.79758626 1.9740708 2.00099492l.0050192.16657981v2.92151377c0 .42409071-.3062877.70681785-.6832573.70681785-.3426995 0-.6269844-.25313036-.6758403-.58237684l-.0074169-.10088042v-3.10999852c0-.2968635-.2099249-.55555883-.509545-.60432926l-.1030305-.00824621h-1.7906052c-.2968635 0-.5555588.2099249-.6043293.50954499l-.0082462.10303048v3.06287733c0 .37696952-.3062877.68325726-.6832572.68325726-.3426996 0-.6269844-.25313036-.6758404-.58237684l-.0074169-.10088042v-3.08643793c0-1.0345243.8157613-1.89730939 1.8325355-1.97360695l.1465545-.00548302zm-6.5498454.04712119c1.0345243 0 1.8973094.81576126 1.973607 1.83253546l.005483.14655451v1.79060521c0 1.03666618-.7975863 1.90088127-2.0009949 1.97407074l-.1665798.00501924h-1.6963629c-.1405016 0-.2654871-.03361822-.369816-.09228715-.7911048-.21456627-1.3933655-.9138306-1.4614823-1.75171928l-.0059552-.13517131.0014926-.06946702c.0487575-.97336026.8268032-1.76397149 1.9754708-1.83383417l.1665779-.00501923 2.1326352-.000938c-.047622-.24548697-.2405945-.44474288-.5006739-.48599127l-.1005227-.00784323h-2.7565896c-.3769695 0-.6832572-.30628773-.6832572-.68325725 0-.34269956.2531303-.62698442.5823768-.67584035l.1008804-.0074169zm-7.209542-2.87439258c.9873011 0 1.803641.76932555 1.8791489 1.73810587l.0056987.14674172v.75393904c0 1.00525205-.5398576 1.17279406-.6598259 1.1976151l-.0234314.00397524.0324504.00414492c.220928.03156114 1.4984682.26840694 1.609141 1.53640122l.0076503.17937729v1.17802974c0 .98730112-.7693256 1.80364101-1.7381059 1.87914889l-.1467417.00569871h-2.2146959c-1.4951916 0-1.8576623-.3920957-1.8833329-1.72086446l-.0015147-.16398314.0005925-5.01997912c.0100376-1.29411688.1606024-1.68716165 1.4153086-1.71653464l.1626587-.00181638zm21.2987778 2.85083198c.4240907 0 .7068178.30628774.7068178.68325726 0 .34269956-.2531303.62698442-.5823768.67584035l-.1008804.0074169h-2.8037108c-.2968635 0-.5555588.2099249-.6043293.50954499l-.0082462.10303048v1.79060521c0 .2968635.2099249.55555883.509545.60432926l.1030305.00824621h2.8037108c.3769695 0 .6832572.30628773.6832572.68325725 0 .34269956-.2531303.62698443-.5823768.67584035l-.1008804.0074169h-2.8037108c-1.0345243 0-1.8973094-.81576126-1.973607-1.83253546l-.005483-.14655451v-1.79060521c-.0225362-1.03666618.7740702-1.90088127 1.9774363-1.97407074l.1665779-.00501924zm5.348255 0c1.0345243 0 1.8973094.81576126 1.973607 1.83253546l.005483.14655452v1.79060521c0 1.03666618-.7975863 1.90088127-2.0009949 1.97407073l-.1665798.00501924h-1.6256811c-1.0345243 0-1.8973094-.81576126-1.9736069-1.83253546l-.005483-.14655451v-1.79060521c0-1.03666618.7975862-1.90088127 2.0009949-1.97407074l.1665798-.00501924zm-25.704609 1.83772641h-2.7801502v2.04977175c0 .43496483.0803012.56880016.4818072.58681646l.1072077.00219842h2.2146959c.2968635 0 .5364747-.2099249.5814283-.49236932l.0075866-.09664556h-.0235606v-1.22515093c0-.32984833-.2591666-.82462082-.5890149-.82462082zm6.8320171 1.41344161-2.3083829.00019408c-.3298483 0-.6125755.25916655-.6125755.61257547l.0039584-.04576955.0036517.04883243c.0401473.25445442.235606.4636725.5019349.507024l.1030305.00824621h1.1544692c.0593541 0 .116956.0075931.171886.02185966l.3700076.00170093c.2968635 0 .5555589-.2099249.6043293-.50954498l.0082462-.10303049zm18.8490313-1.88465351h-1.7906052c-.2968635 0-.5555588.2099249-.6043292.50954499l-.0082462.10303048v1.79060521c0 .2968635.2099249.55555883.5095449.60432926l.1030305.00824621h1.8141658c.2968635 0 .5555589-.2099249.6043293-.50954499l.0082462-.10303048h-.0235606v-1.79060521c0-.32984833-.2591665-.61257547-.6125755-.61257547zm-26.5999116-2.94507436h-1.5549993c-.4375539 0-.3266027.10157501-.3273841.49336435l-.0024642.09565052v1.57855986h1.8848476c.302361 0 .5453296-.41574633.5837246-.73910459l.0052903-.08551623v-.75393904c0-.32984833-.2591666-.58901487-.5890149-.58901487z" fill="#346275"/></svg>