<svg height="40" viewBox="0 0 90 40" width="90" xmlns="http://www.w3.org/2000/svg"><path d="m4.24377158 0v40h-1.32464546v-40zm-1.87351496 0v40h-2.37025662v-40zm87.31927968 0v40h-2.3671905v-40zm-12.9827517 24.2177077c2.0176309 0 3.6703716.6592566 4.9551552 1.983902 1.2786507 1.3154464 1.9225759 3.1429665 1.9225759 5.4702952 0 1.8888463-.2851673 3.3729398-.8524342 4.4522806-.567267 1.0824069-1.3921039 1.9225759-2.4775777 2.5235725-1.0824068.5979304-2.2660025.8953622-3.5477192.8953622-2.0574935 0-3.7194326-.6561905-4.9888849-1.974703-1.2694515-1.3154463-1.9041776-3.2134918-1.9041776-5.6880033 0-2.7136832.7573785-4.7251819 2.2721347-6.034496 1.2602532-1.085473 2.8056729-1.6282102 4.6209278-1.6282102zm-23.5584518 0c1.9593716 0 3.5599844.6653896 4.8018402 2.0023003 1.2418549 1.3338438 1.8643158 3.2134918 1.8643158 5.6358754 0 .1471829-.006133.3679571-.0153321.6623228h-10.9467226c.0919889 1.609812.5458026 2.8455347 1.3675734 3.7010351.8156386.8555004 1.8428523 1.2847836 3.0632429 1.2847836.9137604 0 1.6926025-.2422386 2.3334609-.7236489.6469913-.4814111 1.155999-1.2510541 1.5362213-2.3089312l2.5756995.3403605c-.4016866 1.4963587-1.149866 2.6646222-2.247605 3.4894599-1.0946721.8279031-2.492909 1.241855-4.1977767 1.241855-2.1433502 0-3.842085-.6592567-5.099272-1.9839021-1.2541202-1.3154464-1.8827133-3.1705631-1.8827133-5.5561518 0-2.4653124.6316592-4.3817553 1.9041776-5.7401304 1.2694523-1.3645073 2.91606-2.0452282 4.9428901-2.0452282zm-22.1172863 0c2.0176309 0 3.6703716.6592566 4.9520892 1.983902 1.2817167 1.3154464 1.9225751 3.1429665 1.9225751 5.4702952 0 1.8888463-.2821004 3.3729398-.8493674 4.4522806-.5672669 1.0824069-1.3921039 1.9225759-2.4775776 2.5235725-1.0824069.5979304-2.2660025.8953622-3.5477193.8953622-2.0574935 0-3.7194325-.6561905-4.9888848-1.974703-1.2694515-1.3154463-1.9041777-3.2134918-1.9041777-5.6880033 0-2.7136832.7543116-4.7251819 2.2721348-6.034496 1.2602531-1.085473 2.8026067-1.6282102 4.6209277-1.6282102zm34.7658105-4.8202377v5.1299355h2.4929097v1.9287081h-2.4929097v8.6101955c0 .7144498.0429287 1.1713296.1318514 1.3737064.0858567.2054429.2269073.364891.4262172.4875433.1962438.1165194.4814103.1809117.8493674.1809117.2729013 0 .6377922-.0337288 1.0854737-.101188l.3403597 2.2016102c-.6991184.1471828-1.3277115.2207742-1.8735141.2207742-.9045614 0-1.6006137-.1410506-2.1034884-.4292832-.4936755-.2882335-.8432351-.6623228-1.0486772-1.1284017-.2023768-.466079-.3004987-1.4503647-.3004987-2.9467235v-8.4691449h-1.8428515v-1.9287081h1.8428515v-3.6335767zm-22.5312382-.4507468v20.2867h-2.4929089v-20.2867zm-29.2801839 0c1.5515527 0 2.7934077.2054421 3.7316978.6163279.9352248.410885 1.6650059 1.042545 2.1954772 1.8980454.5335381.8493674.7972403 1.7416635.7972403 2.6768875 0 .8616326-.2361056 1.6803373-.7021845 2.4438481-.4691451.7665776-1.1774627 1.3829055-2.1249519 1.8551167 1.2265235.3587587 2.1709467.9750866 2.8271364 1.8428522.6623228.8646988.990418 1.8888463.990418 3.0693751 0 .9536223-.202376 1.8367192-.6040627 2.652357-.3986205.8187047-.8953622 1.4442317-1.4871596 1.8888463-.5887313.4384824-1.3307785.775776-2.2169416 1.0026833-.8922961.2269064-1.983902.3403605-3.277884.3403605h-7.73936381v-20.2867zm62.7213497 7.3376771c-1.247988 0-2.2844.4630128-3.1092377 1.3951707-.8217708.9290911-1.2326558 2.3303948-1.2326558 4.203909 0 1.879648.410885 3.2870832 1.2326558 4.2192411.8248377.932158 1.8612497 1.4013038 3.1092377 1.4013038 1.2387888 0 2.2690686-.4691458 3.0939055-1.407436.8217708-.9382909 1.2326566-2.3702566 1.2326566-4.2928325 0-1.8121888-.4139519-3.1858952-1.2418557-4.114987-.827903-.935224-1.8551167-1.4043691-3.0847064-1.4043691zm-45.6757381 0c-1.251054 0-2.2843999.4630128-3.1123037 1.3951707-.8187047.9290911-1.2295897 2.3303948-1.2295897 4.203909 0 1.879648.410885 3.2870832 1.2295897 4.2192411.8279038.932158 1.8612497 1.4013038 3.1123037 1.4013038 1.2387888 0 2.2660025-.4691458 3.0939056-1.407436.8217708-.9382909 1.2326565-2.3702566 1.2326565-4.2928325 0-1.8121888-.417018-3.1858952-1.2418557-4.114987-.827903-.935224-1.8551167-1.4043691-3.0847064-1.4043691zm-17.269452 3.5691836h-4.69451914v6.9973166h5.05327714c.8677656 0 1.4779613-.0306627 1.8305862-.0981219.6132618-.1073202 1.1345347-.2912987 1.5484866-.5519356.4170181-.260636.7543117-.6377922 1.0241468-1.1345339.2698352-.4936755.4016867-1.0670755.4016867-1.7140669 0-.7573785-.1931776-1.4166343-.5856652-1.9777691-.3863545-.5611347-.9260249-.9536222-1.6128781-1.1805287-.6868532-.2269073-1.6772712-.3403605-2.965121-.3403605zm39.3990035-3.5967802c-1.1406669 0-2.1004214.3832884-2.8792643 1.1467992-.7727099.7665776-1.2050592 1.7907244-1.2878498 3.075508h8.1870453c-.1103871-1.2387888-.4262171-2.1648145-.941357-2.7811424-.7880412-.9597545-1.818321-1.4411648-3.0785742-1.4411648zm-40.0367957-4.9306248h-4.05672694v6.1479493h4.38482214c1.1897279 0 2.0452275-.0797245 2.5603674-.2361056.6837871-.2023768 1.198927-.5427373 1.5454197-1.0149485.3434266-.472212.5182068-1.0609433.5182068-1.7753931 0-.6745879-.159448-1.2694515-.4875433-1.7784592-.3188961-.5151399-.781909-.8708317-1.3829055-1.0578764-.5979305-.1901115-1.6282103-.2851665-3.0816403-.2851665zm39.116903-21.3261789-.0007053 17.674h-1.324l.0000598-17.674zm1.5944807 0-.000186 17.674h-1.018l.0001714-17.674zm3.277884 0-.00007 17.674h-2.371l.0008134-17.674zm1.873515 0-.000585 17.674h-1.325l.0009395-17.674zm3.0847072 0-.0002922 17.674h-1.325l.0006467-17.674zm-13.4396323 0-.0006599 17.674h-2.37l.0004033-17.674zm18.311997 0-.0006569 17.674h-2.37l.0004003-17.674zm1.873515 0-.0001719 17.674h-1.322l.0005925-17.674zm5.4273664 0-.0005383 17.674h-4.271l.0001701-17.674zm2.6707553 0-.0002936 17.674h-1.325l.0006481-17.674zm3.5231888 0-.0004824 17.674h-2.37l.0002258-17.674zm3.6090454 0-.0005278 17.674h-1.325l.0008823-17.674zm1.5944807 0-.0000085 17.674h-1.022l.0009278-17.674zm-41.0578764 0-.0001321 17.674h-1.021l.0000514-17.674zm-1.5975468 0-.0005853 17.674h-1.321l.000006-17.674zm-3.6059793 0-.000606 17.674h-2.37l.0003486-17.674zm-3.5262557 0-.0003503 17.674h-1.322l.000771-17.674zm-2.6676884 0-.0006619 17.674h-4.274l.0002269-17.674zm-6.197011 0-.0006509 17.674h-1.324l.0000055-17.674zm-1.8735141 0-.0001368 17.674h-2.371l.0008794-17.674zm-3.2778849 0-.0002519 17.674h-1.021l.0001712-17.674zm-1.5975467 0-.0007052 17.674h-1.321l.0001258-17.674zm-3.6059794 0-.0007258 17.674h-2.37l.0004692-17.674zm-3.5262549 0-.0004709 17.674h-1.322l.0008916-17.674zm-2.6676891 0-.0007818 17.674h-4.274l.00034749-17.674zm53.2280571 0-.0008389 17.674h-1.021l.0007583-17.674z" fill="#346275" fill-rule="evenodd"/></svg>