<svg height="40" viewBox="0 0 180 40" width="180" xmlns="http://www.w3.org/2000/svg"><path d="m57.8230575 21.7051515c-1.375103 0-2.750206.2989354-3.6171188.7174451v-8.579447c-1.3452094.5081903-2.7800995 1.1957418-3.9758412 2.1523352-.6277644.5081902-.8071257 1.0163804-.8071257 1.763719v21.1945222c1.2854224.5380838 3.8562671 1.0163805 6.3374312 1.0163805 6.2776441 0 9.8648692-3.8263736 9.8648692-9.3865726.0298936-5.4705185-2.5409511-8.8783824-7.8022147-8.8783824zm-1.7637191 14.3489008c-.5081902 0-1.2854224 0-1.8235061-.1793613v-9.6556144c.6576579-.3587226 1.5843578-.5380838 2.7800995-.5380838 2.421377 0 3.6769058 1.6740384 3.6769058 4.8128604 0 3.2882898-1.4946772 5.5601991-4.6334992 5.5601991zm21.8222866-14.1994331c-2.2719093 0-3.6171187.8968063-4.842754 2.4811641-.1195742-.8071256-.2690419-1.4647836-.5380838-2.2719093-.4782967-.1494677-1.2854224-.1793612-1.9729739-.1793612-.6576579 0-1.4946771.0597871-1.9430803.1793612v17.5176164c.5978709.1494677 1.5544643.1793613 2.421377.1793613.8071257 0 1.8832933-.0597871 2.421377-.1793613v-8.5794469c0-3.407864 1.7936126-5.2313701 4.1850961-5.2313701.4185096 0 1.1658482 0 1.5843578.0597871.2690419-1.1359547.2989354-2.750206.0597871-3.8562671-.2989355-.0298935-.986487-.1195742-1.375103-.1195742zm-60.6241058 8.579447v8.9381694c0 .2391483.1793613.3886161.3886161.3886161h2.4811641v-11.4492271l-2.4811641 1.4348901c-.2391484.1494677-.3886161.3587225-.3886161.6875515zm2.5110577-21.94186081c-2.421377 0-5.0819024.23914835-7.7125342.6875515 2.6605254-3.40786394 6.875515-5.61998614 11.5688012-5.61998614 3.4676511 0 6.9353021 1.28542236 9.2669985 3.25839622.4185096.35872252.7473385.38861606 1.0761675.05978708.328829-.29893543.2989355-.62776441-.0597871-1.04627401-3.0491414-3.52743811-7.5331729-5.91892157-12.7944365-5.82924094-6.9054085.11957417-12.76454297 4.51392503-15.00655871 10.5524208-2.03276094.6277644-3.91605417 1.4049965-5.59009259 2.3316964-.44840315.2690418-.62776441.5679773-.44840315.9565933.14946771.3587226.47829669.4782967.92669984.3587226 1.43489008-.4185097 2.8996737-.7473386 4.4242444-1.1060611-.14946771.8071256-.26904189 1.6142513-.26904189 2.481164-.11957417 5.5900926 2.86978016 10.8812498 7.4434923 13.7809235.4484031.2989354.8370192.2989354 1.1060611-.0597871s.2391483-.6875515-.1494677-1.0163805c-2.8996737-2.6306318-4.54381861-6.5167924-4.54381861-10.3730595 0-1.9430803.38861606-3.8263735 1.13595461-5.5303055 1.5245707-.1195742 3.1687156-.2391483 4.9922218-.2391483 11.8079495 0 21.7624995 3.8861606 21.7624995 8.9979565 0 2.5708447-3.2882898 5.171583-7.1744504 6.9054085-.9266999.4185096-1.046274.717445-.8968063 1.1060611.1195741.3886161.5679773.5081902 1.046274.3587225 6.8157279-2.2420157 11.9574173-5.9189216 11.9574173-10.343166 0-6.0384957-9.7452951-10.67199491-22.0614349-10.67199491zm4.7829669 17.27846801-3.2882898 1.8832932v12.0769915h3.5274381c.3587226 0 .6277644-.2690419.6277644-.6277644v-12.8841171c0-.4782967-.4782966-.657658-.8669127-.4484032zm146.3886812-4.1552025c-5.380838 0-8.400085 3.6769058-8.400085 9.2072113 0 5.6199862 3.168715 9.1175307 8.400085 9.1175307 5.410732 0 8.429979-3.6171187 8.429979-9.1175307 0-5.560199-3.019247-9.2072113-8.429979-9.2072113zm0 14.4983685c-2.660525 0-3.467651-2.1523351-3.467651-5.2612636 0-3.0192479.807126-5.3210507 3.467651-5.3210507 2.750206 0 3.527438 2.2420157 3.527438 5.3210507 0 3.2285026-.9267 5.2612636-3.527438 5.2612636zm-46.843182-14.4983685c-5.171583 0-8.370192 3.467651-8.370192 9.2968919 0 5.7993474 3.348077 9.0577437 9.11753 9.0577437 1.972974 0 4.095416-.3587226 5.470519-1.0163805.269042-1.1359547.269042-2.6007383 0-3.7366929-1.793613.5081902-3.28829.8071256-4.962328.8071256-2.660526 0-4.513925-1.0163804-4.932435-3.8263735h10.911143c.149468-.4185096.179362-1.8533997.179362-2.4512705.059787-5.171583-2.899674-8.1310438-7.413599-8.1310438zm-3.647012 7.0847697c.358722-2.1224415 1.614251-3.4078639 3.557331-3.4078639 2.152335 0 3.019248 1.4647836 3.108929 3.4078639zm37.0381 7.3239181c-2.421377 0-3.975842-1.8832932-3.975842-5.23137 0-3.1687156 1.285423-5.2313701 4.005735-5.2313701 1.165848 0 1.972974.1793613 3.079035.6277644.298936-1.1060611.896807-2.3316964 1.703932-3.3480768-1.494677-.7772322-2.989354-1.1957418-5.380838-1.1957418-5.291157 0-8.370192 3.7665865-8.370192 9.1773178 0 5.6199862 3.138822 9.1773178 8.549554 9.1773178 1.972974 0 3.79648-.3587225 5.261263-1.1658482-.657658-.8370192-1.375103-2.0028674-1.823506-3.3480768-1.345209.5081902-1.913187.5380837-3.049141.5380837zm-70.7281237-14.4086878c-1.8832932-.0298936-3.5573316.1793612-5.1715829.5978709-.2989355 1.1060611-.2690419 2.6605253 0 3.7964799 2.0028674-.4782966 3.138822-.5081902 4.4242444-.5081902 2.481164 0 3.6769058 1.0163805 3.6769058 3.079035v.1793612c-.7174451-.0597871-1.6142514-.1494677-2.2420158-.1494677-4.0954154 0-7.6228535 1.4647836-7.6228535 5.4107313 0 4.454138 3.1687156 5.9488152 7.7723213 5.9488152 2.1523351 0 4.513925-.3886161 6.6961536-1.0462741v-10.014337c-.059787-4.8128604-2.6306318-7.1744503-7.5331729-7.2940245zm2.8697802 14.4086878c-.2690419.0597871-1.4647836.1793613-2.0327609.1793613-2.2121223 0-3.407864-.6576579-3.407864-2.2121222 0-1.5544642 1.1957417-2.1523351 3.407864-2.1523351.717445 0 1.5843577.0597871 2.0327609.1195742zm18.5937835-18.2649549v4.2149896c-.837019-.2391483-1.763719-.2690419-2.511057-.2690419-5.291157 0-8.9082761 3.5573317-8.9082761 9.2371049 0 5.7993474 3.5274381 9.0278501 9.0278501 9.0278501 2.511058 0 4.992222-.3587226 7.204344-1.1060611v-25.0507893c-1.34521.5081902-2.7801 1.1957417-3.975841 2.1523351-.657658.5380838-.83702 1.046274-.83702 1.7936126zm0 18.0258066c-.807125.2391483-1.375103.2690419-2.032761.2690419-3.168715 0-4.424244-2.092548-4.424244-5.1117959 0-3.3480769 1.255529-5.4107313 4.364457-5.4107313.9267 0 1.494678.1195741 2.092548.2690418zm34.347682-6.6064731-1.943081-.8071256c-1.135954-.4782967-1.793612-.8370192-1.793612-1.5843578 0-1.1359547 1.01638-1.3452095 2.331696-1.3452095s2.660525.1494677 4.513925.7174451c.239148-1.2854224.239148-2.4811641 0-3.6171188-1.165848-.6277644-3.318183-.9266998-5.23137-.9266998-3.736693 0-6.546686 2.0028674-6.546686 5.0221153 0 2.6904189 1.165848 4.0655218 4.424244 5.3808377l1.494678.6277645c1.43489.5978708 1.853399.9266998 1.853399 1.8533996 0 1.375103-1.375103 1.6142514-2.540951 1.6142514-1.94308 0-3.407864-.3886161-5.261263-1.046274-.298936 1.1359546-.298936 2.6007382 0 3.7665864 1.584357.8370192 3.766586 1.1359547 6.038495 1.1359547 3.676906 0 6.606473-1.9430804 6.606473-5.4107314.029894-2.8697801-1.225635-4.2149896-3.945947-5.3808378z" fill="#346275"/></svg>