<svg width="24" height="24" viewBox="0 0 24 24" fill="none" xmlns="http://www.w3.org/2000/svg">
<path d="M24 0H0V24H24V0Z" fill="#009B3A"/>
<path d="M12 18L2.5 12L12 6L21.5 12L12 18Z" fill="#FEDF00"/>
<path d="M15.9 12C15.9 14.2 14.1 15.9 12 15.9C9.89998 15.9 8.09998 14.2 8.09998 12C8.09998 9.79998 9.79998 8.09998 12 8.09998C14.2 8.09998 15.9 9.79998 15.9 12Z" fill="#002776"/>
<path d="M8.40001 10.4C8.30001 10.6 8.30001 10.8 8.20001 11C8.40001 10.9 12.4 10.1 15.8 13.2C15.9 13 15.9 12.8 15.9 12.6C12.7 9.80003 8.90001 10.3 8.40001 10.4Z" fill="white"/>
<path d="M8.60003 10.4C8.70003 10.4 8.70002 10.4 8.70002 10.5C8.70002 10.5 8.70002 10.5 8.70002 10.6V10.7V10.8V10.9C8.70002 10.9 8.70003 10.9 8.60003 11H8.50002C8.50002 11 8.40002 11 8.40002 10.9C8.40002 10.9 8.40002 10.9 8.40002 10.8C8.40002 10.7 8.40002 10.7 8.40002 10.7V10.6V10.5C8.50002 10.5 8.50003 10.5 8.60003 10.4ZM8.60003 10.8C8.70003 10.7 8.70002 10.7 8.70002 10.7C8.70002 10.7 8.70002 10.7 8.70002 10.6C8.70002 10.6 8.70002 10.6 8.70002 10.5C8.70002 10.5 8.70003 10.5 8.60003 10.5C8.60003 10.5 8.60002 10.5 8.50002 10.5C8.50002 10.5 8.50002 10.5 8.50002 10.6C8.50002 10.6 8.50002 10.6 8.50002 10.7C8.50002 10.7 8.50003 10.7 8.60003 10.8C8.50003 10.7 8.50003 10.7 8.60003 10.8C8.60003 10.7 8.60003 10.7 8.60003 10.8Z" fill="#009B3A"/>
<path d="M9.2 10.8L9.1 10.7V10.8H9V10.4H9.1C9.1 10.4 9.1 10.4 9.2 10.4C9.2 10.4 9.2 10.4 9.2 10.5V10.6C9.2 10.6 9.2 10.6 9.1 10.6C9.2 10.7 9.2 10.7 9.2 10.8ZM9 10.6C9.1 10.6 9.1 10.6 9 10.6C9.1 10.5 9.1 10.5 9 10.6Z" fill="#009B3A"/>
<path d="M9.40002 10.4H9.50002C9.60002 10.4 9.60003 10.4 9.60003 10.5L9.70002 10.6C9.70002 10.7 9.60002 10.8 9.50002 10.8H9.40002V10.4ZM9.50002 10.7C9.60002 10.6 9.60003 10.6 9.60003 10.6C9.60003 10.6 9.60002 10.6 9.50002 10.6H9.40002L9.50002 10.7Z" fill="#009B3A"/>
<path d="M10.2 10.8H9.90002V10.4H10.2V10.5H10V10.6H10.2V10.7H10V10.8H10.2Z" fill="#009B3A"/>
<path d="M10.7 10.8L10.6 10.7V10.6L10.5 10.9H10.4L10.3 10.6V10.7V10.8H10.2V10.4H10.3L10.4 10.7L10.5 10.4H10.6L10.7 10.8Z" fill="#009B3A"/>
<path d="M11.4 10.9H11.2L11.3 10.6H11.5V10.7H11.4V10.8H11.5L11.4 10.9Z" fill="#009B3A"/>
<path d="M12 10.7L12.1 10.8C12.1 10.8 12.1 10.8 12.2 10.8C12.2 10.8 12.2 10.8 12.2 10.9C12.2 10.9 12.2 10.9 12.1 10.9H12L11.9 11H11.8L12 10.7ZM12 10.9C12.1 10.9 12.1 10.9 12 10.9C12.1 10.9 12.1 10.9 12 10.9C12.1 10.9 12.1 10.9 12 10.9Z" fill="#009B3A"/>
<path d="M12.6 11.3L12.5 11.2H12.4L12.3 11.3H12.2L12.3 10.9L12.4 11C12.4 11 12.4 11.1 12.3 11.1H12.2C12.2 11.1 12.2 11.1 12.2 11.2L12.6 11.3ZM12.4 11C12.5 11 12.5 11 12.4 11C12.5 10.9 12.5 10.9 12.4 11Z" fill="#009B3A"/>
<path d="M13 11C13.1 11 13.1 11 13 11C13.1 11.1 13.1 11.1 13 11L13.1 11.1V11.2V11.3C13.1 11.3 13.1 11.3 13 11.4H12.9H12.8C12.8 11.4 12.8 11.4 12.7 11.3V11.2V11.1V11C12.7 11 12.7 11 12.8 10.9C13 11 13 11 13 11ZM13 11.3C13.1 11.2 13.1 11.2 13.1 11.2C13.1 11.2 13.1 11.2 13.1 11.1C13.1 11.1 13.1 11.1 13 11.1C13 11.1 13 11.1 12.9 11.1C12.9 11.1 12.9 11.1 12.9 11.2C12.9 11.2 12.9 11.2 13 11.3C12.9 11.3 12.9 11.2 13 11.3C12.9 11.3 12.9 11.3 13 11.3C13 11.3 12.9 11.3 13 11.3Z" fill="#009B3A"/>
<path d="M13.4 11.6C13.3 11.6 13.3 11.5 13.4 11.6C13.3 11.5 13.3 11.5 13.4 11.6L13.3 11.5V11.4C13.3 11.4 13.3 11.3 13.4 11.3C13.5 11.3 13.4 11.3 13.5 11.2H13.6H13.7H13.8C13.8 11.2 13.8 11.2 13.8 11.3C13.8 11.3 13.8 11.3 13.8 11.4C13.8 11.4 13.8 11.4 13.8 11.5H13.7C13.7 11.5 13.7 11.5 13.6 11.5C13.6 11.5 13.6 11.5 13.5 11.5C13.5 11.4 13.5 11.4 13.4 11.6C13.5 11.5 13.5 11.5 13.4 11.6C13.5 11.6 13.5 11.6 13.4 11.6C13.4 11.5 13.4 11.5 13.4 11.6C13.5 11.5 13.5 11.5 13.4 11.6C13.5 11.5 13.5 11.5 13.5 11.5V11.4H13.4V11.3L13.5 11.4L13.4 11.5V11.6C13.5 11.6 13.5 11.6 13.4 11.6Z" fill="#009B3A"/>
<path d="M13.9 11.8L13.8 11.7H13.7L13.6 11.8H13.5L13.6 11.5L13.7 11.6V11.7C13.9 11.6 13.9 11.7 13.9 11.8L13.8 11.7C13.8 11.7 13.8 11.7 13.8 11.8C13.8 11.8 13.8 11.8 13.8 11.9L13.9 11.8ZM13.9 11.5C13.9 11.6 13.9 11.6 13.9 11.5V11.5Z" fill="#009B3A"/>
<path d="M14.4 12L14.2 11.9L14.3 11.6L14.5 11.7V11.8L14.4 11.7L14.3 11.8L14.4 11.9V12L14.3 11.8V11.9L14.4 12Z" fill="#009B3A"/>
<path d="M14.7 12.2C14.6 12.2 14.6 12.1 14.7 12.2L14.6 12.1H14.7C14.6 12.1 14.7 12.1 14.7 12.2C14.7 12.1 14.7 12.1 14.7 12.2C14.7 12.1 14.7 12.1 14.7 12.2C14.8 12.2 14.8 12.2 14.7 12.2C14.8 12.2 14.8 12.2 14.7 12.2C14.7 12.1 14.7 12.1 14.7 12.1C14.7 12.1 14.7 12.1 14.7 12C14.7 12 14.7 12 14.7 11.9C14.7 11.9 14.7 11.9 14.8 11.9C14.8 11.9 14.8 11.9 14.9 11.9C14.9 11.9 14.9 11.9 15 11.9C15 11.9 15 11.9 15.1 12C15.1 12 15.1 12 15.1 12.1C15.1 12.1 15.1 12.1 15.1 12.2C15.1 12.2 15.1 12.2 15.1 12.3L14.8 12V11.9C14.8 11.9 14.8 11.9 14.7 11.9C14.8 12.2 14.8 12.2 14.7 12.2Z" fill="#009B3A"/>
<path d="M15.1 12.4C15 12.4 15 12.4 15.1 12.4L15 12.3H15.1C15.1 12.4 15.1 12.4 15.1 12.4C15.1 12.3 15.1 12.3 15.1 12.3C15.1 12.3 15.1 12.3 15.1 12.2C15.1 12.2 15.1 12.2 15.1 12.1C15.1 12.1 15.1 12.1 15.2 12.1C15.2 12.1 15.2 12.1 15.3 12.1C15.3 12.1 15.3 12.1 15.4 12.1C15.4 12.1 15.4 12.1 15.5 12.2C15.5 12.2 15.5 12.2 15.5 12.3C15.5 12.3 15.5 12.3 15.5 12.4C15.5 12.4 15.5 12.4 15.5 12.5L15.4 12.4V12.3C15.4 12.3 15.4 12.3 15.3 12.3C15.1 12.5 15.1 12.5 15.1 12.4C15.1 12.5 15.1 12.5 15.1 12.4Z" fill="#009B3A"/>
<path d="M15.6 12.4C15.6 12.4 15.7 12.4 15.6 12.4C15.7 12.5 15.7 12.5 15.7 12.5V12.6V12.7C15.7 12.7 15.7 12.8 15.6 12.8H15.5H15.4H15.3C15.3 12.8 15.2 12.8 15.2 12.7V12.6V12.5V12.4C15.2 12.4 15.2 12.3 15.3 12.3H15.4C15.5 12.4 15.6 12.4 15.6 12.4ZM15.5 12.7C15.6 12.7 15.6 12.7 15.5 12.7C15.6 12.7 15.6 12.7 15.6 12.7C15.6 12.7 15.6 12.7 15.6 12.6C15.6 12.6 15.6 12.6 15.6 12.5C15.6 12.5 15.6 12.5 15.6 12.4C15.6 12.4 15.6 12.4 15.6 12.3C15.6 12.3 15.6 12.3 15.5 12.3C15.5 12.3 15.5 12.3 15.4 12.3C15.4 12.3 15.4 12.3 15.3 12.3C15.3 12.3 15.3 12.3 15.3 12.4C15.3 12.4 15.3 12.4 15.3 12.5C15.4 12.6 15.4 12.7 15.5 12.7C15.4 12.7 15.4 12.7 15.5 12.7C15.5 12.7 15.4 12.7 15.5 12.7Z" fill="#009B3A"/>
<path d="M13.3 10.6V10.7H13.4L13.3 10.8V10.9V10.8L13.1 10.9L13.2 10.8L13 10.7H13.2L13.3 10.6Z" fill="white"/>
<path d="M13.1 11.6V11.8H13.2H13.1L13.2 11.9H13.1H13V11.8L13.1 11.6Z" fill="white"/>
<path d="M12 12.5V12.6H12.1V12.7H12H11.9V12.6H12V12.5Z" fill="white"/>
<path d="M10.5 12V12.1H10.7H10.6V12.3L10.5 12.2L10.4 12.3V12.1L10.5 12Z" fill="white"/>
<path d="M9.10003 12.7L9.20002 12.9V13V13.1L9.10003 13L9.00002 13.1V13L8.90002 12.9H9.10003V12.7Z" fill="white"/>
<path d="M8.6 13.1V13.3H8.8H8.6L8.7 13.4L8.6 13.3L8.5 13.4L8.6 13.3H8.5H8.6V13.1Z" fill="white"/>
<path d="M10.4 13.9V14.1H10.6L10.4 14.2H10.5H10.4H10.3H10.4L10.3 14.1H10.4V13.9Z" fill="white"/>
<path d="M9.80001 13.6V13.7H9.90001L9.80001 13.8L9.90001 13.9L9.80001 13.8V13.9V13.8L9.70001 13.7H9.80001V13.6Z" fill="white"/>
<path d="M9.89999 13.2L9.99999 13.3H10.1H9.99999V13.5L9.89999 13.4L9.79999 13.5L9.89999 13.3H9.79999H9.89999V13.2Z" fill="white"/>
<path d="M9.50002 12.6V12.7H9.60003H9.50002V12.8V12.7V12.8V12.7H9.40002H9.50002V12.6Z" fill="white"/>
<path d="M8.69998 11.1L8.79998 11.2H8.89997L8.79998 11.3L8.89997 11.4L8.69998 11.3L8.59998 11.4L8.69998 11.3L8.59998 11.2H8.69998V11.1Z" fill="white"/>
<path d="M12.4 12.7999L12.5 12.9999H12.6H12.5V13.0999L12.4 12.9999V13.0999V12.9999H12.3H12.4V12.7999Z" fill="white"/>
<path d="M12 13.6L12.1 13.7V13.8V13.9H12H11.9V13.8V13.7H12V13.6Z" fill="white"/>
<path d="M13.2 14.5L13.3 14.6V14.7V14.8H13.2H13.1V14.7L13 14.6H13.2V14.5Z" fill="white"/>
<path d="M14.8 13.2999H14.9L14.8 13.3999L14.9 13.4999H14.8H14.7L14.8 13.3999L14.6 13.2999H14.8Z" fill="white"/>
<path d="M15 13.6V13.7H15.1L15 13.8L15.1 13.9L15 13.8L14.8 13.9L14.9 13.8L14.8 13.7H14.9L15 13.6Z" fill="white"/>
<path d="M15.4 13.2999V13.3999V13.5999V13.4999L15.3 13.5999V13.3999H15.2H15.3L15.4 13.2999Z" fill="white"/>
<path d="M14.7 13.9L14.8 14V14.1V14.2L14.7 14.1L14.6 14.2L14.7 14.1L14.6 14H14.7V13.9Z" fill="white"/>
<path d="M14 14.5H14.2L14.1 14.6V14.7L14 14.6L13.9 14.7V14.6V14.5H14Z" fill="white"/>
<path d="M13.6 14.2V14.3V14.5V14.4L13.4 14.5L13.5 14.3H13.4H13.5L13.6 14.2Z" fill="white"/>
<path d="M13.9 14.1L14 14.2H14.1H14H13.9V14.1Z" fill="white"/>
<path d="M14.4 14.2H14.5V14.4L14.4 14.3L14.3 14.4V14.2H14.4Z" fill="white"/>
<path d="M14 14.7999V14.9999H14.1H14L14.1 15.0999H14H13.9V14.9999L14 14.7999Z" fill="white"/>
<path d="M12.9 14.1V14.2H13H12.9L13 14.3L12.9 14.2L12.8 14.3V14.2H12.7H12.8L12.9 14.1Z" fill="white"/>
<path d="M11.6 12.9V13H11.7H11.6L11.7 13.1L11.6 13V13.1V13H11.5H11.6V12.9Z" fill="white"/>
<path d="M11.8 13.2L11.9 13.3H11.8H11.7H11.8V13.2Z" fill="white"/>
</svg>
